PathFileType	4	(X/Y/Z)	C:/Users/opensim2020/Desktop/walking_exp_matlab/subject02_walking12_straight_01.trc	
DataRate	CameraRate	NumFrames	NumMarkers	Units	OrigDataRate	OrigDataStartFrame	OrigNumFrames	
100.00	100.00	7	42	mm	100.00	541	178	
Frame#	Time	LFHD			RFHD			LBHD			RBHD			C7			T10			CLAV			STRN			RBAK			LSHO			LUPA			LELB			LFRM			LWRA			LWRB			LFIN			RSHO			RUPA			RELB			RFRM			RWRA			RWRB			RFIN			LASI			RASI			LPSI			RPSI			LTHI			LKNE			LTIB			LANK			LHEE			LTOE			RTHI			RKNE			RTIB			RANK			RHEE			RTOE			*39			*40			*41			
		X1	Y1	Z1	X2	Y2	Z2	X3	Y3	Z3	X4	Y4	Z4	X5	Y5	Z5	X6	Y6	Z6	X7	Y7	Z7	X8	Y8	Z8	X9	Y9	Z9	X10	Y10	Z10	X11	Y11	Z11	X12	Y12	Z12	X13	Y13	Z13	X14	Y14	Z14	X15	Y15	Z15	X16	Y16	Z16	X17	Y17	Z17	X18	Y18	Z18	X19	Y19	Z19	X20	Y20	Z20	X21	Y21	Z21	X22	Y22	Z22	X23	Y23	Z23	X24	Y24	Z24	X25	Y25	Z25	X26	Y26	Z26	X27	Y27	Z27	X28	Y28	Z28	X29	Y29	Z29	X30	Y30	Z30	X31	Y31	Z31	X32	Y32	Z32	X33	Y33	Z33	X34	Y34	Z34	X35	Y35	Z35	X36	Y36	Z36	X37	Y37	Z37	X38	Y38	Z38	X39	Y39	Z39	X40	Y40	Z40	X41	Y41	Z41	X42	Y42	Z42	

45	0.440	-1017.84558	-791.04187	1745.87769	-872.74133	-794.48743	1721.78955	-1034.58142	-902.07819	1648.15930	-895.24170	-920.47192	1620.41821	-961.48511	-949.74835	1520.76367	-950.41522	-1022.92468	1252.30310	-984.14374	-815.79987	1444.23682	-974.63165	-776.93353	1267.07727	-888.17578	-1011.94360	1356.50513	-1147.09863	-896.36444	1489.77661	-1226.44421	-960.58020	1300.68958	-1239.14014	-1001.72192	1166.43469	-1257.40393	-1023.90674	1035.97473	-1239.74500	-991.71796	900.24652	-1263.70642	-1041.56885	913.57184	-1272.01196	-1035.60327	847.34790	-784.87708	-851.57166	1483.92920	-689.54700	-863.33447	1297.93530	-668.77911	-834.85529	1152.30225	-658.61530	-785.03802	1041.22864	-690.30103	-720.10498	925.17474	-649.14191	-759.14862	913.28339	-654.62848	-710.10870	859.73792	-1091.07971	-810.93860	980.37256	-834.30151	-816.93158	958.45050	-1010.21979	-1019.05145	1033.37732	-895.19336	-1024.81128	1032.52124	-1169.59058	-805.12903	689.52985	-1144.67200	-764.63257	495.47934	-1142.19250	-793.11047	303.33359	-1123.74390	-750.48126	81.25268	-1066.40796	-770.61438	50.97874	-1159.74512	-599.20764	61.14343	-793.28235	-936.40314	655.03156	-845.80151	-975.86877	450.50333	-847.31738	-1049.41199	276.08524	-895.85803	-1100.42676	89.81260	-954.09027	-1141.40381	36.87116	-877.53143	-954.93793	32.21128	-930.68268	-906.83154	1787.04346	-3357.51172	2845.86768	1034.30371			 
46	0.450	-1019.91156	-780.02338	1743.88196	-874.60303	-783.28632	1720.04553	-1036.94263	-891.23914	1646.26050	-896.80133	-909.27972	1618.53088	-963.00739	-938.29657	1518.89050	-952.67590	-1012.01666	1250.56067	-985.37128	-804.24658	1442.04468	-975.41321	-765.78607	1264.86597	-889.77649	-1001.01013	1354.91321	-1148.58411	-884.49683	1487.52417	-1227.81140	-951.03796	1299.35803	-1239.79443	-993.78174	1165.64624	-1258.00488	-1018.26245	1035.67383	-1240.98169	-988.08752	899.28278	-1264.63562	-1037.76721	913.40417	-1273.00452	-1033.17712	847.21112	-786.38281	-840.27893	1482.11316	-690.37952	-850.00726	1296.41492	-669.62000	-819.97894	1150.93433	-660.02100	-767.80023	1040.82361	-692.80847	-701.06232	926.21008	-651.41998	-739.65192	913.24036	-657.42657	-689.62848	860.91571	-1091.80811	-798.50458	978.42621	-834.29791	-807.29254	956.94391	-1012.46136	-1007.43671	1030.95288	-897.90430	-1014.77850	1030.02905	-1170.32007	-792.98022	687.45471	-1145.75488	-750.26404	493.74524	-1144.89758	-768.97357	300.15042	-1128.51807	-715.30878	80.30852	-1071.40503	-734.28223	49.26553	-1162.98499	-562.53113	65.50389	-794.07971	-930.86859	654.16681	-846.60272	-971.95392	449.88379	-847.98065	-1047.51917	276.52612	-896.37518	-1100.12085	90.47417	-954.45203	-1141.26233	37.95047	-877.29773	-954.92914	32.19987	-932.70044	-895.71564	1784.95105	-3357.23315	2845.74902	1034.34937			 
47	0.460	-1021.69183	-768.64661	1741.58643	-876.14807	-771.87708	1718.00952	-1038.37024	-879.85181	1643.82068	-898.31409	-897.60577	1616.36279	-964.71429	-926.73358	1516.80823	-954.96387	-1001.00391	1248.67346	-986.73785	-792.61804	1439.71008	-976.13690	-754.59448	1262.48999	-891.70410	-990.21295	1353.30920	-1150.08936	-872.46283	1485.12964	-1229.38184	-941.22540	1298.00073	-1240.79333	-985.73401	1164.66931	-1258.80505	-1012.21918	1035.14258	-1242.18567	-984.07880	898.22900	-1265.47449	-1033.71643	913.36981	-1274.03760	-1030.36169	846.99475	-787.93579	-829.02051	1480.15784	-691.72784	-836.81110	1294.49243	-670.59283	-804.89264	1149.52136	-661.99646	-751.42865	1039.74731	-695.24414	-682.25171	926.90869	-653.71045	-720.29633	913.19275	-660.10565	-668.94037	861.91669	-1092.38135	-785.78088	976.28497	-834.27936	-797.44415	955.35309	-1014.69885	-995.74927	1028.42920	-900.67725	-1004.67535	1027.44324	-1171.23157	-781.09570	684.95929	-1146.96094	-736.01483	491.66373	-1147.73792	-745.13409	297.40405	-1132.99487	-681.23822	80.08814	-1076.26514	-699.59454	48.40445	-1165.56384	-527.04779	71.45254	-794.89587	-924.99048	653.14221	-847.64856	-967.46875	449.02148	-849.11621	-1045.25464	276.69913	-897.10114	-1099.57617	91.11559	-955.49768	-1140.23682	38.03869	-877.27814	-954.96472	32.14596	-934.40643	-884.35962	1782.74194	-3360.17529	2845.23926	1034.19080			 
48	0.470	-1023.62787	-757.49768	1739.21680	-878.43970	-760.27747	1715.68909	-1040.13037	-868.45129	1641.30847	-899.92175	-886.22363	1614.09131	-966.65375	-914.99902	1514.46533	-957.48206	-989.74542	1246.52661	-988.04218	-780.95856	1437.22192	-976.98706	-743.18652	1260.04529	-893.69666	-979.53705	1351.03625	-1151.72888	-860.26605	1482.57104	-1229.93860	-931.15808	1295.95544	-1241.90039	-977.36572	1163.56970	-1259.95911	-1005.73297	1034.40479	-1243.48828	-979.61932	897.10602	-1266.40942	-1029.13916	913.01093	-1275.02502	-1027.00610	846.61536	-789.57483	-818.01569	1478.16479	-693.15558	-824.30353	1292.68848	-671.64740	-789.76752	1147.71667	-663.52966	-734.31024	1039.17261	-697.94788	-663.88330	927.83301	-656.06683	-701.14343	913.04602	-662.90234	-648.81207	862.92004	-1092.89783	-772.87451	974.10419	-834.32581	-787.55139	953.60449	-1016.92731	-983.90527	1025.79309	-903.65247	-993.98267	1024.57507	-1172.63306	-769.26215	682.13641	-1148.23547	-721.60962	489.41013	-1150.63098	-721.85785	295.20764	-1137.33887	-648.39160	80.63394	-1081.20703	-665.48059	47.27644	-1167.30212	-493.23712	78.11362	-795.73175	-919.39185	652.19177	-848.54120	-963.32367	448.37421	-850.12195	-1043.11975	277.02188	-897.84711	-1099.19006	91.83292	-956.24310	-1140.11865	39.24131	-877.14447	-954.95563	32.06335	-936.46777	-872.97144	1780.44678	-3357.38379	2845.86475	1034.28223			 
49	0.480	-1025.62415	-745.86407	1736.78845	-880.40973	-749.03363	1713.49451	-1041.97961	-857.00745	1638.81006	-901.74390	-874.61591	1611.87842	-968.49530	-903.47211	1512.14172	-960.06482	-978.28845	1244.23718	-989.55042	-769.13385	1434.67139	-977.85693	-731.57227	1257.52844	-895.81415	-968.57599	1348.90613	-1153.52930	-847.94342	1479.75842	-1231.20764	-921.19342	1294.17944	-1243.14880	-968.73590	1162.26208	-1261.13953	-998.97644	1033.55115	-1244.65039	-974.65546	895.57471	-1267.34790	-1024.02307	912.39252	-1275.97852	-1023.15167	846.06049	-791.22522	-806.56244	1475.82910	-694.55048	-810.73718	1290.67249	-672.88562	-775.21014	1146.20667	-665.31860	-717.76398	1038.73865	-700.24475	-645.12384	928.30200	-658.61243	-682.13831	912.80090	-665.65576	-628.95001	863.85571	-1093.18176	-759.85809	971.78278	-834.46246	-777.43848	951.58563	-1019.42511	-971.76233	1023.08228	-906.52448	-983.46191	1022.00342	-1174.33044	-757.27893	679.17773	-1149.53748	-706.74835	487.29657	-1153.60559	-699.36035	293.44266	-1141.63123	-616.93250	81.68343	-1086.30029	-634.13800	47.61209	-1168.04358	-460.77286	85.53833	-796.43640	-912.91150	651.11859	-849.32971	-958.58221	447.67383	-851.16913	-1040.90881	277.51086	-898.57977	-1098.61548	92.68623	-957.24353	-1139.27332	39.98222	-877.02246	-955.08984	32.01037	-938.54224	-861.61121	1777.94958	-3360.41479	2845.24927	1034.20557			 
50	0.490	-1027.74036	-734.57629	1734.23059	-882.62628	-737.37335	1711.37085	-1043.33667	-845.25568	1636.11804	-903.56854	-863.13855	1609.46021	-970.55707	-891.78967	1509.59363	-962.71686	-966.71649	1241.85669	-991.09296	-757.11652	1432.06885	-978.67847	-719.88916	1254.98486	-898.22827	-956.44916	1346.49048	-1155.32275	-835.58441	1476.89807	-1233.66650	-910.68909	1292.43311	-1244.55908	-959.79767	1160.80920	-1262.23584	-991.73816	1032.43127	-1245.88367	-969.26221	894.38348	-1268.43457	-1018.44763	911.69702	-1276.85400	-1018.70648	845.43463	-793.02875	-795.46930	1473.34863	-696.16296	-797.87994	1288.36438	-674.23383	-760.94995	1144.33032	-667.29181	-700.94348	1037.72583	-702.93622	-626.82068	928.93365	-661.08728	-663.49200	912.57483	-668.57684	-609.46326	864.43945	-1093.29321	-746.62286	969.40656	-834.74170	-767.15649	949.47241	-1022.06067	-959.51288	1020.28119	-909.64435	-972.28235	1019.18921	-1176.26172	-745.06537	676.40448	-1150.99463	-691.53387	485.38400	-1156.70569	-677.60382	292.10849	-1145.84570	-587.09381	83.26057	-1091.19348	-603.54163	47.34951	-1168.52991	-430.50821	92.93923	-797.26971	-906.41284	650.10852	-850.12469	-953.91656	447.12497	-852.14984	-1038.63208	278.12616	-899.33899	-1098.23914	93.85555	-958.07996	-1138.88086	41.48487	-876.84583	-955.05060	31.86386	-940.59229	-849.95575	1775.79846	-3357.50610	2845.96655	1034.28430			 
51	0.500	-1029.74976	-722.79376	1731.69958	-884.70416	-725.71332	1709.01331	-1045.40320	-833.73297	1633.58484	-905.59863	-851.47192	1607.26294	-972.72455	-880.03094	1506.99121	-965.47742	-954.91931	1239.37415	-992.66656	-745.07526	1429.45605	-979.52563	-707.90912	1252.46045	-900.78711	-945.12195	1344.14050	-1157.32983	-823.07184	1473.82996	-1235.27722	-899.95386	1290.33838	-1246.07043	-950.56342	1159.22400	-1263.48254	-984.16083	1031.27527	-1247.07520	-963.32776	892.89233	-1269.44580	-1012.39551	910.97595	-1277.84460	-1013.66626	844.54523	-794.75732	-784.44116	1470.97156	-697.82489	-785.33282	1286.24451	-675.77582	-746.49969	1142.40295	-669.67078	-685.03625	1036.77991	-705.46918	-608.86774	929.53394	-663.52844	-645.05084	912.47736	-671.40771	-590.04181	865.50092	-1093.47913	-733.00500	967.23718	-835.15747	-756.74042	947.25385	-1024.91870	-947.12445	1017.48169	-912.73633	-961.16272	1016.64551	-1178.32532	-732.27399	673.98230	-1152.53406	-676.16376	483.56720	-1160.04431	-656.51642	290.96292	-1150.04114	-559.12091	85.08172	-1096.15222	-575.74634	47.92653	-1168.56860	-402.28906	99.76321	-798.19781	-899.91498	649.48840	-850.87671	-948.86938	446.59103	-853.23889	-1035.98914	278.85541	-899.91321	-1097.33716	95.00283	-958.55841	-1138.72180	43.68933	-876.67145	-955.04962	31.76403	-942.72845	-838.33673	1773.32275	-3357.43481	2845.89185	1034.24792			 
